<svg width="24" height="24" viewBox="0 0 24 24" fill="none"
    xmlns="http://www.w3.org/2000/svg" className="group-hover:animate-pulse">
    <g clipPath="url(#clip0_1808_983)">
        <path d="M9.29588 12.5053C8.80687 12.3423 8.80687 11.6517 9.29588 11.4887L12.1662 10.533C12.7972 10.3226 13.3705 9.96811 13.8407 9.49768C14.3108 9.02724 14.665 8.45374 14.875 7.82266L15.8308 4.95381C15.9938 4.4648 16.6844 4.4648 16.8474 4.95381L17.8031 7.82414C18.0135 8.45511 18.368 9.02841 18.8384 9.49859C19.3089 9.96877 19.8824 10.3229 20.5134 10.533L23.3823 11.4887C23.4894 11.5239 23.5826 11.5919 23.6487 11.6832C23.7148 11.7745 23.7504 11.8843 23.7504 11.997C23.7504 12.1097 23.7148 12.2195 23.6487 12.3108C23.5826 12.4021 23.4894 12.4701 23.3823 12.5053L20.512 13.4611C19.8811 13.6713 19.308 14.0255 18.8378 14.4957C18.3676 14.9659 18.0134 15.5391 17.8032 16.1699L16.8474 19.0402C16.8122 19.1473 16.7442 19.2405 16.6529 19.3067C16.5616 19.3728 16.4518 19.4084 16.3391 19.4084C16.2264 19.4084 16.1166 19.3728 16.0253 19.3067C15.934 19.2405 15.866 19.1473 15.8308 19.0402L14.875 16.1699C14.6648 15.5391 14.3106 14.9659 13.8404 14.4957C13.3702 14.0255 12.797 13.6713 12.1662 13.4611L9.29588 12.5053ZM1.73995 18.2297C1.67578 18.2084 1.61994 18.1675 1.58036 18.1127C1.54078 18.0579 1.51947 17.992 1.51947 17.9244C1.51947 17.8568 1.54078 17.7909 1.58036 17.7361C1.61994 17.6813 1.67578 17.6404 1.73995 17.6191L3.46186 17.0457C4.22945 16.7893 4.83108 16.1877 5.08744 15.4201L5.66092 13.6982C5.68216 13.634 5.7231 13.5782 5.7779 13.5386C5.8327 13.499 5.89858 13.4777 5.96618 13.4777C6.03377 13.4777 6.09965 13.499 6.15445 13.5386C6.20925 13.5782 6.25019 13.634 6.27143 13.6982L6.84491 15.4201C6.97104 15.7986 7.18361 16.1426 7.46576 16.4248C7.74792 16.707 8.09192 16.9195 8.47049 17.0457L10.1924 17.6191C10.2566 17.6404 10.3124 17.6813 10.352 17.7361C10.3916 17.7909 10.4129 17.8568 10.4129 17.9244C10.4129 17.992 10.3916 18.0579 10.352 18.1127C10.3124 18.1675 10.2566 18.2084 10.1924 18.2297L8.47049 18.8031C8.09192 18.9293 7.74792 19.1418 7.46576 19.424C7.18361 19.7061 6.97104 20.0501 6.84491 20.4287L6.27144 22.1506C6.25019 22.2148 6.20925 22.2706 6.15445 22.3102C6.09965 22.3498 6.03377 22.3711 5.96618 22.3711C5.89858 22.3711 5.8327 22.3498 5.7779 22.3102C5.7231 22.2706 5.68216 22.2148 5.66092 22.1506L5.08744 20.4287C4.96131 20.0501 4.74875 19.7061 4.46659 19.424C4.18443 19.1418 3.84043 18.9293 3.46186 18.8031L1.73995 18.2297ZM0.185499 7.75449C0.143305 7.73987 0.106718 7.71245 0.0808236 7.67607C0.0549294 7.63969 0.041015 7.59614 0.041015 7.55148C0.041015 7.50682 0.0549294 7.46328 0.0808236 7.42689C0.106718 7.39051 0.143305 7.3631 0.185499 7.34847L1.33245 6.96615C1.84516 6.79574 2.24674 6.39416 2.41716 5.88144L2.79947 4.73449C2.8141 4.6923 2.84151 4.65571 2.8779 4.62982C2.91428 4.60392 2.95783 4.59001 3.00249 4.59001C3.04714 4.59001 3.09069 4.60392 3.12707 4.62982C3.16346 4.65571 3.19087 4.6923 3.2055 4.73449L3.58781 5.88144C3.67187 6.13411 3.81367 6.36371 4.00196 6.552C4.19026 6.7403 4.41985 6.8821 4.67252 6.96615L5.81947 7.34847C5.86167 7.3631 5.89825 7.39051 5.92415 7.42689C5.95004 7.46328 5.96396 7.50682 5.96396 7.55148C5.96396 7.59614 5.95004 7.63969 5.92415 7.67607C5.89825 7.71245 5.86167 7.73987 5.81947 7.75449L4.67252 8.13681C4.41985 8.22086 4.19026 8.36267 4.00196 8.55096C3.81367 8.73925 3.67187 8.96885 3.58781 9.22152L3.2055 10.367C3.19087 10.4092 3.16346 10.4458 3.12707 10.4717C3.09069 10.4976 3.04714 10.5115 3.00249 10.5115C2.95783 10.5115 2.91428 10.4976 2.8779 10.4717C2.84151 10.4458 2.8141 10.4092 2.79947 10.367L2.41716 9.22004C2.24674 8.70732 1.84516 8.30574 1.33245 8.13533L0.186981 7.75449L0.185499 7.75449Z" fill="white" />
    </g>
    <defs>
        <clipPath id="clip0_1808_983">
            <rect width="23.7095" height="23.7095" fill="white" transform="translate(0.0371094 23.8535) rotate(-90)" />
        </clipPath>
    </defs>
</svg>